<svg xmlns="http://www.w3.org/2000/svg" width="261.863" height="29" viewBox="0 0 261.863 29">
  <g id="NeosRulezBootstrap" transform="translate(-990 -179)">
    <rect id="Square" width="29" height="29" rx="6" transform="translate(990 179)" fill="#563d7c"/>
    <text id="B" transform="translate(998 201)" fill="#fff" font-size="21" font-family="HelveticaNeue, Helvetica Neue"><tspan x="0" y="0">B</tspan></text>
    <path id="NeosRulez.Bootstrap" d="M11.136,0H9.208L3.415-11.156,3.384,0H1.466V-14.93H3.394L9.188-3.794,9.218-14.93h1.917Zm7.312.205a5.629,5.629,0,0,1-2.148-.4,4.874,4.874,0,0,1-1.677-1.118,5.113,5.113,0,0,1-1.087-1.7,5.771,5.771,0,0,1-.39-2.143v-.431a6.348,6.348,0,0,1,.431-2.4A5.513,5.513,0,0,1,14.72-9.787a4.988,4.988,0,0,1,1.62-1.123A4.674,4.674,0,0,1,18.2-11.3a4.948,4.948,0,0,1,2.1.415A4.115,4.115,0,0,1,21.79-9.736a4.9,4.9,0,0,1,.887,1.728,7.609,7.609,0,0,1,.292,2.153V-5H15.043a4.358,4.358,0,0,0,.292,1.425,3.7,3.7,0,0,0,.718,1.164,3.316,3.316,0,0,0,1.092.784,3.374,3.374,0,0,0,1.4.287,3.858,3.858,0,0,0,1.8-.41A3.915,3.915,0,0,0,21.667-2.84l1.159.9a4.4,4.4,0,0,1-.692.8,4.778,4.778,0,0,1-.959.682,5.394,5.394,0,0,1-1.23.477A5.913,5.913,0,0,1,18.448.205ZM18.2-9.741a2.837,2.837,0,0,0-1.087.21,2.836,2.836,0,0,0-.923.615,3.508,3.508,0,0,0-.692.995A4.727,4.727,0,0,0,15.1-6.562h5.968v-.144a4.236,4.236,0,0,0-.21-1.1,3.057,3.057,0,0,0-.528-.974,2.642,2.642,0,0,0-.877-.7A2.757,2.757,0,0,0,18.2-9.741ZM24.775-5.65a6.917,6.917,0,0,1,.349-2.23,5.343,5.343,0,0,1,1-1.789,4.656,4.656,0,0,1,1.584-1.195,4.909,4.909,0,0,1,2.1-.436,4.969,4.969,0,0,1,2.117.436,4.643,4.643,0,0,1,1.589,1.195,5.343,5.343,0,0,1,1,1.789,6.917,6.917,0,0,1,.349,2.23v.226A6.871,6.871,0,0,1,34.516-3.2a5.352,5.352,0,0,1-1,1.784A4.6,4.6,0,0,1,31.932-.226a4.959,4.959,0,0,1-2.1.431,5.019,5.019,0,0,1-2.117-.431,4.587,4.587,0,0,1-1.589-1.189,5.352,5.352,0,0,1-1-1.784,6.871,6.871,0,0,1-.349-2.225Zm1.9.226a6.145,6.145,0,0,0,.195,1.564,4.045,4.045,0,0,0,.59,1.307,2.91,2.91,0,0,0,.99.892,2.82,2.82,0,0,0,1.384.328A2.769,2.769,0,0,0,31.2-1.661a2.926,2.926,0,0,0,.984-.892,4.045,4.045,0,0,0,.59-1.307,6.145,6.145,0,0,0,.195-1.564V-5.65a5.956,5.956,0,0,0-.2-1.553,4.127,4.127,0,0,0-.595-1.307,2.977,2.977,0,0,0-.984-.9,2.756,2.756,0,0,0-1.379-.333,2.727,2.727,0,0,0-1.374.333,2.994,2.994,0,0,0-.979.9,4.045,4.045,0,0,0-.59,1.307,6.1,6.1,0,0,0-.195,1.553ZM44.443-2.943a1.367,1.367,0,0,0-.133-.61,1.359,1.359,0,0,0-.451-.5,3.562,3.562,0,0,0-.841-.415,9,9,0,0,0-1.3-.344,13.128,13.128,0,0,1-1.738-.472,5.721,5.721,0,0,1-1.343-.661,2.892,2.892,0,0,1-.866-.9,2.314,2.314,0,0,1-.308-1.2,2.628,2.628,0,0,1,.318-1.266,3.226,3.226,0,0,1,.892-1.031,4.488,4.488,0,0,1,1.369-.7,5.67,5.67,0,0,1,1.748-.256,5.956,5.956,0,0,1,1.846.267,4.231,4.231,0,0,1,1.395.738,3.337,3.337,0,0,1,.887,1.1,3.016,3.016,0,0,1,.313,1.359h-1.9a1.468,1.468,0,0,0-.185-.7,2.011,2.011,0,0,0-.513-.61,2.632,2.632,0,0,0-.795-.431,3.155,3.155,0,0,0-1.051-.164,3.8,3.8,0,0,0-1.061.133,2.372,2.372,0,0,0-.759.359,1.531,1.531,0,0,0-.456.523,1.323,1.323,0,0,0-.154.615,1.334,1.334,0,0,0,.123.584,1.2,1.2,0,0,0,.426.461,3.224,3.224,0,0,0,.81.369A11.592,11.592,0,0,0,42-6.378a14.965,14.965,0,0,1,1.835.5A5.4,5.4,0,0,1,45.2-5.2a2.822,2.822,0,0,1,.846.918,2.439,2.439,0,0,1,.292,1.21,2.737,2.737,0,0,1-.333,1.343A3.146,3.146,0,0,1,45.079-.7a4.506,4.506,0,0,1-1.425.667,6.626,6.626,0,0,1-1.815.236,6.179,6.179,0,0,1-2.01-.3,4.8,4.8,0,0,1-1.492-.8A3.445,3.445,0,0,1,37.4-2.051a3.052,3.052,0,0,1-.323-1.364h1.9a1.964,1.964,0,0,0,.313.984,2.178,2.178,0,0,0,.677.646,2.821,2.821,0,0,0,.9.349,4.766,4.766,0,0,0,.974.1,3.525,3.525,0,0,0,1.9-.441A1.358,1.358,0,0,0,44.443-2.943Zm9.332-3.148H50.791V0H48.9V-14.93h4.378a7.322,7.322,0,0,1,1.969.3,4.73,4.73,0,0,1,1.615.831,3.864,3.864,0,0,1,1.087,1.389,4.555,4.555,0,0,1,.395,1.964,4.039,4.039,0,0,1-.21,1.333,4.007,4.007,0,0,1-.579,1.1,4.266,4.266,0,0,1-.882.872,5.693,5.693,0,0,1-1.128.646L58.717-.123,58.707,0h-2ZM50.791-7.649h2.543a3.94,3.94,0,0,0,1.2-.2,3,3,0,0,0,.99-.549,2.58,2.58,0,0,0,.672-.877,2.753,2.753,0,0,0,.246-1.195,3.108,3.108,0,0,0-.236-1.256,2.5,2.5,0,0,0-.656-.9,2.809,2.809,0,0,0-1-.549,4.37,4.37,0,0,0-1.266-.195H50.791Zm17,6.122A3.951,3.951,0,0,1,66.408-.251a3.918,3.918,0,0,1-1.917.456,4.374,4.374,0,0,1-1.579-.272A3.028,3.028,0,0,1,61.7-.913a3.937,3.937,0,0,1-.774-1.461A7.318,7.318,0,0,1,60.656-4.5v-6.593h1.9v6.614a6.525,6.525,0,0,0,.144,1.5,2.371,2.371,0,0,0,.431.948,1.538,1.538,0,0,0,.7.5,2.931,2.931,0,0,0,.959.144,3.337,3.337,0,0,0,1.871-.472,2.862,2.862,0,0,0,1.061-1.271v-7.957h1.907V0H67.905ZM72.654-15.75h5.67V-1.641h3.62V0h-9.29V-1.641h3.773V-14.1H72.654ZM89.02.205a5.629,5.629,0,0,1-2.148-.4A4.874,4.874,0,0,1,85.2-1.312a5.113,5.113,0,0,1-1.087-1.7,5.771,5.771,0,0,1-.39-2.143v-.431a6.348,6.348,0,0,1,.431-2.4,5.513,5.513,0,0,1,1.143-1.794,4.988,4.988,0,0,1,1.62-1.123,4.674,4.674,0,0,1,1.861-.39,4.948,4.948,0,0,1,2.1.415,4.115,4.115,0,0,1,1.492,1.148,4.9,4.9,0,0,1,.887,1.728,7.609,7.609,0,0,1,.292,2.153V-5H85.616a4.358,4.358,0,0,0,.292,1.425,3.7,3.7,0,0,0,.718,1.164,3.316,3.316,0,0,0,1.092.784,3.374,3.374,0,0,0,1.4.287,3.858,3.858,0,0,0,1.8-.41A3.915,3.915,0,0,0,92.24-2.84l1.159.9a4.4,4.4,0,0,1-.692.8,4.778,4.778,0,0,1-.959.682,5.394,5.394,0,0,1-1.23.477A5.913,5.913,0,0,1,89.02.205Zm-.246-9.946a2.837,2.837,0,0,0-1.087.21,2.836,2.836,0,0,0-.923.615,3.508,3.508,0,0,0-.692.995,4.727,4.727,0,0,0-.395,1.359h5.968v-.144a4.236,4.236,0,0,0-.21-1.1,3.057,3.057,0,0,0-.528-.974,2.642,2.642,0,0,0-.877-.7A2.757,2.757,0,0,0,88.774-9.741Zm9.383,8.193h7.065V0H95.737V-1.395l6.624-8.131H95.829v-1.569h9.023v1.343Zm12.787.318a1.66,1.66,0,0,1,.1-.574,1.376,1.376,0,0,1,.282-.467,1.268,1.268,0,0,1,.461-.313,1.7,1.7,0,0,1,.646-.113,1.744,1.744,0,0,1,.651.113,1.31,1.31,0,0,1,.472.313,1.336,1.336,0,0,1,.287.467,1.66,1.66,0,0,1,.1.574,1.588,1.588,0,0,1-.1.559,1.293,1.293,0,0,1-.287.456,1.289,1.289,0,0,1-.472.3,1.818,1.818,0,0,1-.651.108,1.777,1.777,0,0,1-.646-.108,1.247,1.247,0,0,1-.461-.3,1.331,1.331,0,0,1-.282-.456A1.588,1.588,0,0,1,110.944-1.23Z" transform="translate(1029 201)"/>
    <path id="NeosRulez.Bootstrap-2" data-name="NeosRulez.Bootstrap" d="M119.384,0V-14.93h4.44a7.429,7.429,0,0,1,1.8.241,4.836,4.836,0,0,1,1.569.713,3.586,3.586,0,0,1,1.1,1.23,3.607,3.607,0,0,1,.4,1.794,3.2,3.2,0,0,1-.19,1.066,3.047,3.047,0,0,1-.492.866,3.438,3.438,0,0,1-.733.672,5.386,5.386,0,0,1-.892.492,4.119,4.119,0,0,1,1.092.5,3.519,3.519,0,0,1,.856.779,3.531,3.531,0,0,1,.559,1.031,3.748,3.748,0,0,1,.2,1.241,3.9,3.9,0,0,1-.4,1.846,3.988,3.988,0,0,1-1.1,1.338,5.025,5.025,0,0,1-1.584.825,6.259,6.259,0,0,1-1.851.3Zm1.907-6.983V-1.61h2.922a3.523,3.523,0,0,0,1.128-.2,3.1,3.1,0,0,0,.943-.528,2.47,2.47,0,0,0,.651-.831,2.509,2.509,0,0,0,.241-1.118,2.627,2.627,0,0,0-.21-1.128,2.414,2.414,0,0,0-.61-.836,2.745,2.745,0,0,0-.913-.528,3.752,3.752,0,0,0-1.128-.205Zm0-1.579h2.646a3.759,3.759,0,0,0,1.046-.169,2.943,2.943,0,0,0,.913-.461,2.37,2.37,0,0,0,.646-.743,2.069,2.069,0,0,0,.246-1.025,2.195,2.195,0,0,0-.241-1.066,2.088,2.088,0,0,0-.646-.723,2.828,2.828,0,0,0-.933-.415,4.766,4.766,0,0,0-1.082-.144h-2.594Zm9.342,2.912a6.917,6.917,0,0,1,.349-2.23,5.343,5.343,0,0,1,1-1.789,4.656,4.656,0,0,1,1.584-1.195,4.909,4.909,0,0,1,2.1-.436,4.969,4.969,0,0,1,2.117.436,4.643,4.643,0,0,1,1.589,1.195,5.343,5.343,0,0,1,1,1.789,6.917,6.917,0,0,1,.349,2.23v.226a6.871,6.871,0,0,1-.349,2.225,5.352,5.352,0,0,1-1,1.784,4.6,4.6,0,0,1-1.584,1.189,4.959,4.959,0,0,1-2.1.431,5.019,5.019,0,0,1-2.117-.431,4.587,4.587,0,0,1-1.589-1.189,5.352,5.352,0,0,1-1-1.784,6.871,6.871,0,0,1-.349-2.225Zm1.9.226a6.145,6.145,0,0,0,.195,1.564,4.045,4.045,0,0,0,.59,1.307,2.91,2.91,0,0,0,.99.892,2.82,2.82,0,0,0,1.384.328,2.769,2.769,0,0,0,1.369-.328,2.926,2.926,0,0,0,.984-.892,4.045,4.045,0,0,0,.59-1.307,6.145,6.145,0,0,0,.195-1.564V-5.65a5.956,5.956,0,0,0-.2-1.553,4.127,4.127,0,0,0-.595-1.307,2.977,2.977,0,0,0-.984-.9,2.756,2.756,0,0,0-1.379-.333,2.727,2.727,0,0,0-1.374.333,2.994,2.994,0,0,0-.979.9,4.045,4.045,0,0,0-.59,1.307,6.1,6.1,0,0,0-.195,1.553ZM142.4-5.65a6.917,6.917,0,0,1,.349-2.23,5.343,5.343,0,0,1,1-1.789,4.656,4.656,0,0,1,1.584-1.195,4.909,4.909,0,0,1,2.1-.436,4.969,4.969,0,0,1,2.117.436,4.643,4.643,0,0,1,1.589,1.195,5.343,5.343,0,0,1,1,1.789,6.917,6.917,0,0,1,.349,2.23v.226a6.871,6.871,0,0,1-.349,2.225,5.352,5.352,0,0,1-1,1.784,4.6,4.6,0,0,1-1.584,1.189,4.959,4.959,0,0,1-2.1.431,5.019,5.019,0,0,1-2.117-.431,4.587,4.587,0,0,1-1.589-1.189,5.352,5.352,0,0,1-1-1.784,6.871,6.871,0,0,1-.349-2.225Zm1.9.226a6.145,6.145,0,0,0,.195,1.564,4.045,4.045,0,0,0,.59,1.307,2.91,2.91,0,0,0,.99.892,2.82,2.82,0,0,0,1.384.328,2.769,2.769,0,0,0,1.369-.328,2.926,2.926,0,0,0,.984-.892,4.045,4.045,0,0,0,.59-1.307,6.145,6.145,0,0,0,.195-1.564V-5.65a5.956,5.956,0,0,0-.2-1.553,4.127,4.127,0,0,0-.595-1.307,2.977,2.977,0,0,0-.984-.9,2.756,2.756,0,0,0-1.379-.333,2.727,2.727,0,0,0-1.374.333,2.994,2.994,0,0,0-.979.9,4.045,4.045,0,0,0-.59,1.307,6.1,6.1,0,0,0-.195,1.553Zm14.889-8.357v2.687h4.225v1.466h-4.225V-3.6a2.963,2.963,0,0,0,.164,1.066,1.687,1.687,0,0,0,.451.672,1.655,1.655,0,0,0,.661.354,3,3,0,0,0,.795.1,5.849,5.849,0,0,0,.636-.036q.328-.036.641-.087t.584-.108q.272-.056.446-.1l.267,1.343a2.654,2.654,0,0,1-.574.251,6.467,6.467,0,0,1-.738.185q-.4.077-.846.118t-.887.041a4.4,4.4,0,0,1-1.379-.21,2.859,2.859,0,0,1-1.113-.667,3.154,3.154,0,0,1-.743-1.179,4.983,4.983,0,0,1-.272-1.748V-9.628h-2.912v-1.466h2.912v-2.687ZM173.825-2.943a1.367,1.367,0,0,0-.133-.61,1.359,1.359,0,0,0-.451-.5,3.562,3.562,0,0,0-.841-.415,9,9,0,0,0-1.3-.344,13.128,13.128,0,0,1-1.738-.472,5.721,5.721,0,0,1-1.343-.661,2.892,2.892,0,0,1-.866-.9,2.314,2.314,0,0,1-.308-1.2,2.628,2.628,0,0,1,.318-1.266,3.226,3.226,0,0,1,.892-1.031,4.488,4.488,0,0,1,1.369-.7,5.67,5.67,0,0,1,1.748-.256,5.956,5.956,0,0,1,1.846.267,4.231,4.231,0,0,1,1.395.738,3.337,3.337,0,0,1,.887,1.1,3.016,3.016,0,0,1,.313,1.359h-1.9a1.468,1.468,0,0,0-.185-.7,2.011,2.011,0,0,0-.513-.61,2.632,2.632,0,0,0-.795-.431,3.155,3.155,0,0,0-1.051-.164,3.8,3.8,0,0,0-1.061.133,2.372,2.372,0,0,0-.759.359,1.531,1.531,0,0,0-.456.523,1.323,1.323,0,0,0-.154.615,1.334,1.334,0,0,0,.123.584,1.2,1.2,0,0,0,.426.461,3.224,3.224,0,0,0,.81.369,11.592,11.592,0,0,0,1.287.318,14.965,14.965,0,0,1,1.835.5,5.4,5.4,0,0,1,1.364.677,2.822,2.822,0,0,1,.846.918,2.439,2.439,0,0,1,.292,1.21,2.737,2.737,0,0,1-.333,1.343A3.146,3.146,0,0,1,174.461-.7a4.506,4.506,0,0,1-1.425.667,6.626,6.626,0,0,1-1.815.236,6.179,6.179,0,0,1-2.01-.3,4.8,4.8,0,0,1-1.492-.8,3.445,3.445,0,0,1-.933-1.154,3.052,3.052,0,0,1-.323-1.364h1.9a1.964,1.964,0,0,0,.313.984,2.178,2.178,0,0,0,.677.646,2.821,2.821,0,0,0,.9.349,4.766,4.766,0,0,0,.974.1,3.525,3.525,0,0,0,1.9-.441A1.358,1.358,0,0,0,173.825-2.943Zm8.881-10.838v2.687h4.225v1.466h-4.225V-3.6a2.963,2.963,0,0,0,.164,1.066,1.687,1.687,0,0,0,.451.672,1.655,1.655,0,0,0,.661.354,3,3,0,0,0,.795.1,5.849,5.849,0,0,0,.636-.036q.328-.036.641-.087t.584-.108q.272-.056.446-.1l.267,1.343a2.654,2.654,0,0,1-.574.251,6.467,6.467,0,0,1-.738.185q-.4.077-.846.118t-.887.041a4.4,4.4,0,0,1-1.379-.21,2.859,2.859,0,0,1-1.113-.667,3.154,3.154,0,0,1-.743-1.179A4.983,4.983,0,0,1,180.8-3.6V-9.628h-2.912v-1.466H180.8v-2.687ZM197.247-11.3q.267,0,.554.015t.549.051q.261.036.482.087a2.216,2.216,0,0,1,.364.113l-.256,1.856a10.11,10.11,0,0,0-1.051-.179,9.24,9.24,0,0,0-1.041-.056,3.564,3.564,0,0,0-2.158.6,3.492,3.492,0,0,0-1.215,1.692V0h-1.907V-11.095h1.8l.092,1.764a5.1,5.1,0,0,1,1.625-1.441A4.361,4.361,0,0,1,197.247-11.3ZM209.03,0a2.066,2.066,0,0,1-.179-.538,5.879,5.879,0,0,1-.1-.672,5.31,5.31,0,0,1-.641.543,4.555,4.555,0,0,1-.779.451,4.8,4.8,0,0,1-.907.308A4.489,4.489,0,0,1,205.4.205a4.686,4.686,0,0,1-1.594-.256,3.727,3.727,0,0,1-1.21-.692,3.018,3.018,0,0,1-.769-1.036,3.106,3.106,0,0,1-.272-1.3,3.367,3.367,0,0,1,.364-1.6,3.171,3.171,0,0,1,1.031-1.143,4.8,4.8,0,0,1,1.6-.682,8.984,8.984,0,0,1,2.1-.226h2.071V-7.6a2.129,2.129,0,0,0-.185-.9,1.929,1.929,0,0,0-.523-.682,2.4,2.4,0,0,0-.825-.436,3.618,3.618,0,0,0-1.092-.154,3.291,3.291,0,0,0-1.01.144,2.473,2.473,0,0,0-.754.379,1.687,1.687,0,0,0-.477.559,1.429,1.429,0,0,0-.169.672H201.78a2.662,2.662,0,0,1,.313-1.189,3.356,3.356,0,0,1,.872-1.051,4.539,4.539,0,0,1,1.384-.754A5.552,5.552,0,0,1,206.2-11.3a6.379,6.379,0,0,1,1.753.231,3.987,3.987,0,0,1,1.4.7,3.3,3.3,0,0,1,.928,1.164,3.694,3.694,0,0,1,.338,1.63V-2.42a7.212,7.212,0,0,0,.1,1.174,5.214,5.214,0,0,0,.287,1.082V0Zm-3.353-1.446a3.612,3.612,0,0,0,1.036-.144,3.837,3.837,0,0,0,.877-.379,3.183,3.183,0,0,0,.682-.538,2.626,2.626,0,0,0,.451-.631V-5.383h-1.764a5.565,5.565,0,0,0-2.584.492,1.637,1.637,0,0,0-.923,1.548,2.038,2.038,0,0,0,.138.759,1.594,1.594,0,0,0,.415.6,1.969,1.969,0,0,0,.7.395A3.013,3.013,0,0,0,205.677-1.446Zm17.186-3.979a8.243,8.243,0,0,1-.287,2.22,5.515,5.515,0,0,1-.841,1.789,3.975,3.975,0,0,1-1.369,1.189,3.924,3.924,0,0,1-1.861.431,4.554,4.554,0,0,1-1.789-.328,3.712,3.712,0,0,1-1.328-.943V4.266h-1.9v-15.36h1.733l.092,1.21a3.7,3.7,0,0,1,1.338-1.051,4.282,4.282,0,0,1,1.82-.364,4.08,4.08,0,0,1,1.887.42,3.9,3.9,0,0,1,1.374,1.169,5.384,5.384,0,0,1,.841,1.789,8.561,8.561,0,0,1,.287,2.281Zm-1.9-.215a6.471,6.471,0,0,0-.179-1.543,4.015,4.015,0,0,0-.554-1.292,2.8,2.8,0,0,0-.948-.887,2.725,2.725,0,0,0-1.374-.328,2.646,2.646,0,0,0-1.533.426,3.164,3.164,0,0,0-.99,1.092V-2.83a3.118,3.118,0,0,0,.984,1.072,2.728,2.728,0,0,0,1.559.415,2.67,2.67,0,0,0,1.364-.333,2.785,2.785,0,0,0,.943-.9,4.144,4.144,0,0,0,.549-1.3,6.535,6.535,0,0,0,.179-1.548Z" transform="translate(1029 201)" fill="#563d7c"/>
  </g>
</svg>
